<mxfile host="app.diagrams.net" modified="2022-05-18T13:29:05.760Z" agent="5.0 (Windows)" etag="v3NOrb9dRjoOAW_AX-eH" version="18.0.7" type="github">
  <diagram id="4_j23K20x61tD8mC-4Bv" name="Page-1">
    <mxGraphModel dx="1240" dy="684" grid="1" gridSize="10" guides="1" tooltips="1" connect="1" arrows="1" fold="1" page="1" pageScale="1" pageWidth="827" pageHeight="1169" background="#DAD2D8" math="0" shadow="0">
      <root>
        <mxCell id="0" />
        <mxCell id="1" parent="0" />
        <mxCell id="gNvEvgzn4GQU5REo3JXt-3" value="" style="edgeStyle=orthogonalEdgeStyle;rounded=1;orthogonalLoop=1;jettySize=auto;html=1;labelBackgroundColor=#DAD2D8;strokeColor=#A8201A;fontColor=#143642;curved=1;" edge="1" parent="1" source="-gSB6Gbb6Ie0smQklGdy-1" target="gNvEvgzn4GQU5REo3JXt-1">
          <mxGeometry relative="1" as="geometry" />
        </mxCell>
        <mxCell id="-gSB6Gbb6Ie0smQklGdy-1" value="Corpus" style="shape=cylinder3;whiteSpace=wrap;html=1;boundedLbl=1;backgroundOutline=1;size=15;fillColor=#FAE5C7;strokeColor=#0F8B8D;fontColor=#143642;rounded=1;" parent="1" vertex="1">
          <mxGeometry x="130" y="70" width="110" height="120" as="geometry" />
        </mxCell>
        <mxCell id="-gSB6Gbb6Ie0smQklGdy-5" value="&lt;div&gt;Nettoyage &amp;amp;&lt;/div&gt;&lt;div&gt;Normalisation&lt;br&gt;&lt;/div&gt;" style="rounded=1;whiteSpace=wrap;html=1;fillColor=#FAE5C7;strokeColor=#0F8B8D;fontColor=#143642;" parent="1" vertex="1">
          <mxGeometry x="570" y="30" width="120" height="60" as="geometry" />
        </mxCell>
        <mxCell id="-gSB6Gbb6Ie0smQklGdy-8" value="Tokenisation" style="rounded=1;whiteSpace=wrap;html=1;fillColor=#FAE5C7;strokeColor=#0F8B8D;fontColor=#143642;" parent="1" vertex="1">
          <mxGeometry x="570" y="100" width="120" height="60" as="geometry" />
        </mxCell>
        <mxCell id="-gSB6Gbb6Ie0smQklGdy-9" value="Lemmatisation &amp;amp; POS tag" style="rounded=1;whiteSpace=wrap;html=1;fillColor=#FAE5C7;strokeColor=#0F8B8D;fontColor=#143642;" parent="1" vertex="1">
          <mxGeometry x="570" y="170" width="120" height="60" as="geometry" />
        </mxCell>
        <mxCell id="-gSB6Gbb6Ie0smQklGdy-13" value="" style="endArrow=classic;html=1;rounded=1;entryX=0;entryY=0.5;entryDx=0;entryDy=0;exitX=1;exitY=0.5;exitDx=0;exitDy=0;labelBackgroundColor=#DAD2D8;strokeColor=#A8201A;fontColor=#143642;curved=1;" parent="1" target="-gSB6Gbb6Ie0smQklGdy-5" edge="1">
          <mxGeometry width="50" height="50" relative="1" as="geometry">
            <mxPoint x="440" y="130" as="sourcePoint" />
            <mxPoint x="440" y="160" as="targetPoint" />
          </mxGeometry>
        </mxCell>
        <mxCell id="-gSB6Gbb6Ie0smQklGdy-14" value="" style="endArrow=classic;html=1;rounded=1;entryX=0;entryY=0.5;entryDx=0;entryDy=0;exitX=1;exitY=0.5;exitDx=0;exitDy=0;labelBackgroundColor=#DAD2D8;strokeColor=#A8201A;fontColor=#143642;curved=1;" parent="1" target="-gSB6Gbb6Ie0smQklGdy-8" edge="1">
          <mxGeometry width="50" height="50" relative="1" as="geometry">
            <mxPoint x="440" y="130" as="sourcePoint" />
            <mxPoint x="440" y="160" as="targetPoint" />
          </mxGeometry>
        </mxCell>
        <mxCell id="-gSB6Gbb6Ie0smQklGdy-15" value="" style="endArrow=classic;html=1;rounded=1;entryX=0;entryY=0.5;entryDx=0;entryDy=0;labelBackgroundColor=#DAD2D8;strokeColor=#A8201A;fontColor=#143642;curved=1;" parent="1" target="-gSB6Gbb6Ie0smQklGdy-9" edge="1">
          <mxGeometry width="50" height="50" relative="1" as="geometry">
            <mxPoint x="440" y="130" as="sourcePoint" />
            <mxPoint x="440" y="160" as="targetPoint" />
          </mxGeometry>
        </mxCell>
        <mxCell id="-gSB6Gbb6Ie0smQklGdy-16" value="" style="strokeWidth=2;html=1;shape=mxgraph.flowchart.annotation_2;align=left;labelPosition=right;pointerEvents=1;direction=west;fillColor=#FAE5C7;strokeColor=#0F8B8D;fontColor=#143642;rounded=1;" parent="1" vertex="1">
          <mxGeometry x="690" y="130" width="50" height="70" as="geometry" />
        </mxCell>
        <mxCell id="-gSB6Gbb6Ie0smQklGdy-17" value="Spacy" style="strokeWidth=2;html=1;shape=mxgraph.flowchart.display;whiteSpace=wrap;fillColor=#FAE5C7;strokeColor=#0F8B8D;fontColor=#143642;rounded=1;" parent="1" vertex="1">
          <mxGeometry x="740" y="145" width="80" height="40" as="geometry" />
        </mxCell>
        <mxCell id="-gSB6Gbb6Ie0smQklGdy-19" value="Unicode" style="strokeWidth=2;html=1;shape=mxgraph.flowchart.display;whiteSpace=wrap;fillColor=#FAE5C7;strokeColor=#0F8B8D;fontColor=#143642;rounded=1;" parent="1" vertex="1">
          <mxGeometry x="740" y="40" width="80" height="40" as="geometry" />
        </mxCell>
        <mxCell id="-gSB6Gbb6Ie0smQklGdy-24" value="" style="edgeStyle=orthogonalEdgeStyle;rounded=1;orthogonalLoop=1;jettySize=auto;html=1;labelBackgroundColor=#DAD2D8;strokeColor=#A8201A;fontColor=#143642;curved=1;" parent="1" source="-gSB6Gbb6Ie0smQklGdy-21" target="-gSB6Gbb6Ie0smQklGdy-23" edge="1">
          <mxGeometry relative="1" as="geometry" />
        </mxCell>
        <mxCell id="-gSB6Gbb6Ie0smQklGdy-26" value="" style="edgeStyle=orthogonalEdgeStyle;rounded=1;orthogonalLoop=1;jettySize=auto;html=1;labelBackgroundColor=#DAD2D8;strokeColor=#A8201A;fontColor=#143642;curved=1;" parent="1" source="-gSB6Gbb6Ie0smQklGdy-21" target="-gSB6Gbb6Ie0smQklGdy-25" edge="1">
          <mxGeometry relative="1" as="geometry" />
        </mxCell>
        <mxCell id="-gSB6Gbb6Ie0smQklGdy-21" value="Choix des caractéristiques textuelles" style="whiteSpace=wrap;html=1;fontStyle=1;startSize=0;fillColor=#FAE5C7;strokeColor=#0F8B8D;fontColor=#143642;rounded=1;" parent="1" vertex="1">
          <mxGeometry x="180" y="270" width="120" height="60" as="geometry" />
        </mxCell>
        <mxCell id="-gSB6Gbb6Ie0smQklGdy-29" value="" style="edgeStyle=orthogonalEdgeStyle;rounded=1;orthogonalLoop=1;jettySize=auto;html=1;labelBackgroundColor=#DAD2D8;strokeColor=#A8201A;fontColor=#143642;curved=1;" parent="1" source="-gSB6Gbb6Ie0smQklGdy-23" target="-gSB6Gbb6Ie0smQklGdy-28" edge="1">
          <mxGeometry relative="1" as="geometry" />
        </mxCell>
        <mxCell id="-gSB6Gbb6Ie0smQklGdy-23" value="Récupération des fréquences relatives sur tout le corpus" style="whiteSpace=wrap;html=1;fontStyle=1;startSize=0;fillColor=#FAE5C7;strokeColor=#0F8B8D;fontColor=#143642;rounded=1;" parent="1" vertex="1">
          <mxGeometry x="175" y="410" width="130" height="70" as="geometry" />
        </mxCell>
        <mxCell id="-gSB6Gbb6Ie0smQklGdy-25" value="&lt;div&gt;&lt;br&gt;&lt;/div&gt;&lt;div&gt;1000 uni-bi-tri-grammes les plus fréquents sur un échantillon de 200 romans&lt;/div&gt;&lt;div&gt;&lt;br&gt;&lt;/div&gt;" style="rounded=1;whiteSpace=wrap;html=1;fontStyle=1;startSize=0;fillColor=#FAE5C7;strokeColor=#0F8B8D;fontColor=#143642;" parent="1" vertex="1">
          <mxGeometry x="440" y="250" width="120" height="100" as="geometry" />
        </mxCell>
        <mxCell id="-gSB6Gbb6Ie0smQklGdy-28" value="Tableau d&#39;entraînement : 2951 lignes (romans) et 3000 colonnes (caractéristiques textuelles)" style="rounded=1;whiteSpace=wrap;html=1;fontStyle=1;startSize=0;fillColor=#FAE5C7;strokeColor=#0F8B8D;fontColor=#143642;" parent="1" vertex="1">
          <mxGeometry x="440" y="401.88" width="170" height="86.25" as="geometry" />
        </mxCell>
        <mxCell id="gNvEvgzn4GQU5REo3JXt-1" value="Pré-traitement" style="whiteSpace=wrap;html=1;fontStyle=1;startSize=0;fillColor=#FAE5C7;strokeColor=#0F8B8D;fontColor=#143642;rounded=1;" vertex="1" parent="1">
          <mxGeometry x="320" y="100" width="120" height="60" as="geometry" />
        </mxCell>
        <mxCell id="gNvEvgzn4GQU5REo3JXt-4" value="" style="endArrow=classic;html=1;rounded=1;exitX=0.5;exitY=1;exitDx=0;exitDy=0;entryX=0.5;entryY=0;entryDx=0;entryDy=0;labelBackgroundColor=#DAD2D8;strokeColor=#A8201A;fontColor=#143642;curved=1;" edge="1" parent="1" source="gNvEvgzn4GQU5REo3JXt-1" target="-gSB6Gbb6Ie0smQklGdy-21">
          <mxGeometry width="50" height="50" relative="1" as="geometry">
            <mxPoint x="390" y="330" as="sourcePoint" />
            <mxPoint x="440" y="280" as="targetPoint" />
          </mxGeometry>
        </mxCell>
        <mxCell id="gNvEvgzn4GQU5REo3JXt-5" value="" style="endArrow=none;html=1;rounded=1;fontColor=#143642;strokeColor=#004C99;fillColor=#FAE5C7;curved=1;entryX=0;entryY=0.5;entryDx=0;entryDy=0;entryPerimeter=0;exitX=1;exitY=0.5;exitDx=0;exitDy=0;" edge="1" parent="1" source="-gSB6Gbb6Ie0smQklGdy-5" target="-gSB6Gbb6Ie0smQklGdy-19">
          <mxGeometry width="50" height="50" relative="1" as="geometry">
            <mxPoint x="390" y="330" as="sourcePoint" />
            <mxPoint x="440" y="280" as="targetPoint" />
          </mxGeometry>
        </mxCell>
      </root>
    </mxGraphModel>
  </diagram>
</mxfile>
